<svg xmlns="http://www.w3.org/2000/svg" width="128" height="128" viewBox="0 0 128 128">
    <!-- Khối nền bo góc (Squircle) -->
    <rect width="128" height="128" rx="32" fill="#d97706" />
    
    <!-- Icon trung tâm (Kích thước 64x64, căn giữa khung nền 128x128) -->
    <svg x="32" y="32" width="64" height="64" viewBox="0 0 24 24" fill="none" stroke="#ffffff" stroke-width="1.5" stroke-linecap="round" stroke-linejoin="round">
        
                                <path d="M8 3H5a2 2 0 0 0-2 2v3"></path>
                                <path d="M21 8V5a2 2 0 0 0-2-2h-3"></path>
                                <path d="M3 16v3a2 2 0 0 0 2 2h3"></path>
                                <path d="M16 21h3a2 2 0 0 0 2-2v-3"></path>
                                <rect x="7" y="7" width="4" height="4" rx="1"></rect>
                                <rect x="13" y="7" width="4" height="4" rx="1"></rect>
                                <rect x="7" y="13" width="4" height="4" rx="1"></rect>
                                <rect x="13" y="13" width="2" height="2"></rect>
                                <rect x="15" y="15" width="2" height="2"></rect>
                            
    </svg>
</svg>